<svg xmlns="http://www.w3.org/2000/svg" width="77" height="77" viewBox="0 0 77 77">
  <g id="Group_2017" data-name="Group 2017" transform="translate(-361 -2634)">
    <circle id="Ellipse_321" data-name="Ellipse 321" cx="38.5" cy="38.5" r="38.5" transform="translate(361 2634)" fill="#7b27ec"/>
    <path id="brain-circuit" d="M43.791,20.071a9.109,9.109,0,0,0-3.649-7.26v-.038a7.31,7.31,0,0,0-5.66-7.112A7.3,7.3,0,0,0,21.9,2.476,7.3,7.3,0,0,0,9.309,5.66a7.312,7.312,0,0,0-5.66,7.112v.038A9.106,9.106,0,0,0,0,20.071a8.9,8.9,0,0,0,1.252,4.562A8.922,8.922,0,0,0,0,29.194a9.084,9.084,0,0,0,4.136,7.6A10.019,10.019,0,0,0,21.9,39.518,10.019,10.019,0,0,0,39.655,36.8a9.089,9.089,0,0,0,4.136-7.6,8.9,8.9,0,0,0-1.252-4.562A8.922,8.922,0,0,0,43.791,20.071ZM13.685,40.142a6.344,6.344,0,0,1-6.206-4.948A1.824,1.824,0,0,0,6.563,34a5.459,5.459,0,0,1-2.914-4.8A5.389,5.389,0,0,1,4.888,25.78a1.826,1.826,0,0,0,0-2.294,5.392,5.392,0,0,1-1.239-3.416,5.477,5.477,0,0,1,2.815-4.749,1.823,1.823,0,0,0,.9-1.907,3.72,3.72,0,0,1-.068-.642,3.653,3.653,0,0,1,3.649-3.649A1.824,1.824,0,0,0,12.772,7.3a3.649,3.649,0,0,1,7.3,0v7.3H15.933a3.649,3.649,0,1,0,0,3.649h4.138v9.123H15.933a3.649,3.649,0,1,0,0,3.649h4.138v2.737A6.393,6.393,0,0,1,13.685,40.142ZM38.9,25.778a5.392,5.392,0,0,1,1.239,3.416,5.451,5.451,0,0,1-2.914,4.8,1.824,1.824,0,0,0-.916,1.2A6.377,6.377,0,0,1,23.72,33.754V25.543h3.649a5.481,5.481,0,0,0,5.474-5.474V19.58a3.649,3.649,0,1,0-3.649,0v.489a1.826,1.826,0,0,1-1.825,1.825H23.72V7.3a3.649,3.649,0,1,1,7.3,0,1.824,1.824,0,0,0,1.825,1.825,3.653,3.653,0,0,1,3.649,3.649,3.909,3.909,0,0,1-.068.642,1.823,1.823,0,0,0,.9,1.907,5.474,5.474,0,0,1,2.815,4.749A5.389,5.389,0,0,1,38.9,23.487a1.826,1.826,0,0,0,0,2.294Z" transform="translate(378 2650)" fill="#fff"/>
  </g>
</svg>
