<svg id="Group_1980" data-name="Group 1980" xmlns="http://www.w3.org/2000/svg" xmlns:xlink="http://www.w3.org/1999/xlink" width="53.957" height="60.208" viewBox="0 0 53.957 60.208">
  <defs>
    <linearGradient id="linear-gradient" x1="0.5" x2="0.5" y2="1" gradientUnits="objectBoundingBox">
      <stop offset="0" stop-color="#753cec"/>
      <stop offset="1" stop-color="#685eed"/>
    </linearGradient>
  </defs>
  <path id="Path_17301" data-name="Path 17301" d="M40.4,6.855c15.825,9.136,13.424,4.979,13.424,23.252s2.4,14.115-13.424,23.252-11.024,9.136-26.849,0S.129,48.379.129,30.106s-2.4-14.115,13.424-23.252,11.024-9.136,26.849,0Z" transform="translate(0.001 -0.003)" fill-rule="evenodd" fill="url(#linear-gradient)"/>
  <g id="Group_1979" data-name="Group 1979" transform="translate(15.269 15.558)">
    <path id="Path_17302" data-name="Path 17302" d="M2107.863,2151.45h3.463v3.882h9.567V2144.25h3.464a3.473,3.473,0,0,1,3.463,3.463v25.629h-3.463a3.473,3.473,0,0,1-3.464-3.463v-7.62h-9.567v11.083h-3.463a3.473,3.473,0,0,1-3.463-3.463v-14.965A3.473,3.473,0,0,1,2107.863,2151.45Z" transform="translate(-2104.399 -2144.25)" fill="#fff" fill-rule="evenodd"/>
    <path id="Path_17303" data-name="Path 17303" d="M2107.012,2150.61h4.3v2.623a2.63,2.63,0,0,1-2.622,2.622h-4.3v-2.622A2.63,2.63,0,0,1,2107.012,2150.61Z" transform="translate(-2104.344 -2150.61)" fill="#fefefe" fill-rule="evenodd"/>
  </g>
</svg>
