<svg xmlns="http://www.w3.org/2000/svg" width="77" height="77" viewBox="0 0 77 77">
  <g id="Group_2016" data-name="Group 2016" transform="translate(-361 -948)">
    <circle id="Ellipse_320" data-name="Ellipse 320" cx="38.5" cy="38.5" r="38.5" transform="translate(361 948)" fill="#7b27ec"/>
    <path id="site-alt" d="M39.234,26.961S24.6,20.309,24.547,20.292a3.334,3.334,0,0,0-3.455.8,3.376,3.376,0,0,0-.741,3.6l6.609,14.536a1.673,1.673,0,0,0,1.495.982h.032a1.679,1.679,0,0,0,1.5-.927l3.1-6.2,6.2-3.1a1.676,1.676,0,0,0-.055-3.025Zm-8.145,3.378a1.678,1.678,0,0,0-.749.749l-1.783,3.566-5.1-11.187,11.195,5.091-3.561,1.78ZM21.636,36.8c-.288.025-.578.044-.871.055a32.706,32.706,0,0,1-6.073-8.365h1.227a1.676,1.676,0,0,0,0-3.351H13.355a17.2,17.2,0,0,1-.788-5.027,17.152,17.152,0,0,1,.791-5.027h13.5a19.053,19.053,0,0,1,.494,1.989,1.675,1.675,0,0,0,3.291-.627c-.087-.461-.191-.915-.307-1.362H36.09a16.69,16.69,0,0,1,.771,5.029q0,.772-.069,1.525a1.676,1.676,0,1,0,3.338.3c.054-.6.082-1.211.082-1.826a20.106,20.106,0,1,0-20.106,20.1h0c.615,0,1.223-.028,1.823-.082a1.675,1.675,0,1,0-.295-3.338ZM9.873,25.136H4.122a16.788,16.788,0,0,1,0-10.057H9.873a19.564,19.564,0,0,0,0,10.054ZM14.7,11.731a32.684,32.684,0,0,1,5.411-7.688,32.452,32.452,0,0,1,5.412,7.688Zm19.915,0H29.206a32.953,32.953,0,0,0-4.745-7.8A16.835,16.835,0,0,1,34.615,11.731Zm-18.864-7.8a32.919,32.919,0,0,0-4.745,7.8H5.6A16.815,16.815,0,0,1,15.751,3.928ZM5.6,28.486h5.406a32.885,32.885,0,0,0,4.745,7.8A16.837,16.837,0,0,1,5.6,28.486Z" transform="translate(379 966)" fill="#fff"/>
  </g>
</svg>
